<?xml version="1.0" encoding="utf-8"?>
<!-- Generator: Adobe Illustrator 16.0.0, SVG Export Plug-In . SVG Version: 6.00 Build 0)  -->
<!DOCTYPE svg PUBLIC "-//W3C//DTD SVG 1.1//EN" "http://www.w3.org/Graphics/SVG/1.1/DTD/svg11.dtd">
<svg version="1.1" id="Capa_1" xmlns="http://www.w3.org/2000/svg" xmlns:xlink="http://www.w3.org/1999/xlink" x="0px" y="0px"
	 width="16px" height="16px" viewBox="247 247 16 16" enable-background="new 247 247 16 16" xml:space="preserve">
<g>
	<g id="play-install">
		<path d="M261.401,250.6h-3.2V249l-1.601-1.6h-3.199L251.8,249v1.6h-3.2c-0.88,0-1.6,0.72-1.6,1.6v8.8c0,0.88,0.72,1.6,1.6,1.6
			h12.801c0.88,0,1.6-0.72,1.6-1.6v-8.8C263,251.32,262.281,250.6,261.401,250.6z M253.401,249h3.199v1.6h-3.199V249z M253.8,259.8
			L251,257l1.12-1.12l1.68,1.681l4.16-4.161l1.12,1.12L253.8,259.8z"/>
	</g>
</g>
</svg>
