<?xml version="1.0" encoding="utf-8"?>
<!-- Generator: Adobe Illustrator 16.0.0, SVG Export Plug-In . SVG Version: 6.00 Build 0)  -->
<!DOCTYPE svg PUBLIC "-//W3C//DTD SVG 1.1//EN" "http://www.w3.org/Graphics/SVG/1.1/DTD/svg11.dtd">
<svg version="1.1" id="圖層_1" xmlns="http://www.w3.org/2000/svg" xmlns:xlink="http://www.w3.org/1999/xlink" x="0px" y="0px"
	 width="16px" height="16px" viewBox="24 24 16 16" enable-background="new 24 24 16 16" xml:space="preserve">
<g>
	<g>
		<path d="M24.565,39.394h14.869c0.317,0,0.565-0.247,0.565-0.564v-12.61c0-0.316-0.248-0.564-0.565-0.564h-2.798v-0.482
			c0-0.317-0.247-0.565-0.564-0.565s-0.565,0.248-0.565,0.565v0.482h-6.918v-0.482c0-0.317-0.248-0.565-0.564-0.565
			c-0.317,0-0.565,0.248-0.565,0.565v0.482h-2.894c-0.317,0-0.565,0.248-0.565,0.564v12.624C24,39.146,24.262,39.394,24.565,39.394
			L24.565,39.394z M25.13,26.784h2.329v0.303c0,0.317,0.248,0.565,0.565,0.565c0.316,0,0.564-0.248,0.564-0.565v-0.303h6.918v0.303
			c0,0.317,0.248,0.565,0.565,0.565s0.564-0.248,0.564-0.565v-0.303h2.246v1.461H25.13V26.784z M25.13,29.375h13.74v8.903H25.13
			V29.375L25.13,29.375z"/>
		<path d="M36.072,31.966h-8.131c-0.317,0-0.565,0.248-0.565,0.565c0,0.316,0.248,0.565,0.565,0.565h8.131
			c0.317,0,0.564-0.249,0.564-0.565C36.637,32.214,36.39,31.966,36.072,31.966z"/>
		<path d="M32.007,34.694h-4.065c-0.317,0-0.565,0.248-0.565,0.565s0.248,0.564,0.565,0.564h4.065c0.316,0,0.564-0.247,0.564-0.564
			S32.323,34.694,32.007,34.694z"/>
	</g>
</g>
</svg>
