<?xml version="1.0" encoding="utf-8"?>
<!-- Generator: Adobe Illustrator 16.0.0, SVG Export Plug-In . SVG Version: 6.00 Build 0)  -->
<!DOCTYPE svg PUBLIC "-//W3C//DTD SVG 1.1//EN" "http://www.w3.org/Graphics/SVG/1.1/DTD/svg11.dtd">
<svg version="1.1" id="Capa_1" xmlns="http://www.w3.org/2000/svg" xmlns:xlink="http://www.w3.org/1999/xlink" x="0px" y="0px"
	 width="16px" height="16px" viewBox="24 24 16 16" enable-background="new 24 24 16 16" xml:space="preserve">
<g>
	<g>
		<g>
			<path d="M36.719,24h-9.438C25.472,24,24,25.472,24,27.281v9.438C24,38.528,25.472,40,27.281,40h9.438
				C38.528,40,40,38.528,40,36.719v-9.438C40,25.472,38.528,24,36.719,24z M32,37.656c-3.124,0-5.656-2.532-5.656-5.656
				s2.532-5.656,5.656-5.656s5.656,2.532,5.656,5.656S35.124,37.656,32,37.656z"/>
		</g>
	</g>
	<g>
		<g>
			<polygon points="33.256,28.197 31.531,31.896 31.531,34.813 32.469,34.813 32.469,32.104 34.106,28.594 			"/>
		</g>
	</g>
</g>
</svg>
