<?xml version="1.0" encoding="utf-8"?>
<!-- Generator: Adobe Illustrator 16.0.0, SVG Export Plug-In . SVG Version: 6.00 Build 0)  -->
<!DOCTYPE svg PUBLIC "-//W3C//DTD SVG 1.1//EN" "http://www.w3.org/Graphics/SVG/1.1/DTD/svg11.dtd">
<svg version="1.1" id="Capa_1" xmlns="http://www.w3.org/2000/svg" xmlns:xlink="http://www.w3.org/1999/xlink" x="0px" y="0px"
	 width="16px" height="16px" viewBox="0 0 16 16" enable-background="new 0 0 16 16" xml:space="preserve">
<g>
	<path d="M13.947,6.525C13.971,6.352,14,6.18,14,6c0-2.209-1.79-4-4-4C8.693,2,7.544,2.637,6.814,3.605C6.551,3.542,6.281,3.5,6,3.5
		C4.066,3.5,2.5,5.066,2.5,7c0,0.055,0.014,0.104,0.016,0.158C1.066,7.585,0,8.911,0,10.5C0,12.434,1.566,14,3.5,14H12
		c2.21,0,4-1.79,4-4C16,8.502,15.167,7.211,13.947,6.525z M8,12L5,9h2V6h2v3h2L8,12z"/>
</g>
</svg>
