<?xml version="1.0" encoding="utf-8"?>
<!-- Generator: Adobe Illustrator 16.0.0, SVG Export Plug-In . SVG Version: 6.00 Build 0)  -->
<!DOCTYPE svg PUBLIC "-//W3C//DTD SVG 1.1//EN" "http://www.w3.org/Graphics/SVG/1.1/DTD/svg11.dtd">
<svg version="1.1" id="Capa_1" xmlns="http://www.w3.org/2000/svg" xmlns:xlink="http://www.w3.org/1999/xlink" x="0px" y="0px"
	 width="16px" height="16px" viewBox="0 0 16 16" enable-background="new 0 0 16 16" xml:space="preserve">
<g>
	<g id="_x37__43_">
		<g>
			<path d="M10.561,7.732L8.5,9.793V4.5C8.5,4.225,8.275,4,8,4S7.5,4.225,7.5,4.5v5.293L5.439,7.732
				c-0.195-0.195-0.512-0.195-0.707,0s-0.195,0.512,0,0.707l2.828,2.828C7.682,11.387,7.846,11.424,8,11.396
				c0.154,0.027,0.318-0.01,0.439-0.129l2.828-2.828c0.195-0.195,0.195-0.513,0-0.707C11.072,7.537,10.756,7.537,10.561,7.732z M8,0
				C3.582,0,0,3.582,0,8c0,4.419,3.582,8,8,8s8-3.582,8-8S12.42,0,8,0z M8,15c-3.865,0-7-3.134-7-7s3.135-7,7-7s7,3.134,7,7
				S11.865,15,8,15z"/>
		</g>
	</g>
</g>
</svg>
