<?xml version="1.0" encoding="utf-8"?>
<!-- Generator: Adobe Illustrator 16.0.0, SVG Export Plug-In . SVG Version: 6.00 Build 0)  -->
<!DOCTYPE svg PUBLIC "-//W3C//DTD SVG 1.1//EN" "http://www.w3.org/Graphics/SVG/1.1/DTD/svg11.dtd">
<svg version="1.1" id="Capa_1" xmlns="http://www.w3.org/2000/svg" xmlns:xlink="http://www.w3.org/1999/xlink" x="0px" y="0px"
	 width="16px" height="16px" viewBox="0 0 16 16" enable-background="new 0 0 16 16" xml:space="preserve">
<g>
	<path id="Facebook" d="M5.88,3.1c0,0.402,0,2.203,0,2.203H4.265v2.693H5.88V16h3.315V7.996h2.227c0,0,0.207-1.291,0.309-2.703
		c-0.289,0-2.521,0-2.521,0s0-1.567,0-1.843c0-0.274,0.361-0.646,0.719-0.646c0.355,0,1.109,0,1.807,0c0-0.367,0-1.635,0-2.805
		c-0.93,0-1.988,0-2.455,0C5.798,0,5.88,2.696,5.88,3.1z"/>
</g>
</svg>
