<?xml version="1.0" encoding="utf-8"?>
<!-- Generator: Adobe Illustrator 16.0.0, SVG Export Plug-In . SVG Version: 6.00 Build 0)  -->
<!DOCTYPE svg PUBLIC "-//W3C//DTD SVG 1.1//EN" "http://www.w3.org/Graphics/SVG/1.1/DTD/svg11.dtd">
<svg version="1.1" id="Capa_1" xmlns="http://www.w3.org/2000/svg" xmlns:xlink="http://www.w3.org/1999/xlink" x="0px" y="0px"
	 width="16px" height="16px" viewBox="0 0 16 16" enable-background="new 0 0 16 16" xml:space="preserve">
<g>
	<path d="M11.999,0.002L9.925,0C7.593,0,6.087,1.545,6.087,3.938v1.814H4.001c-0.181,0-0.326,0.146-0.326,0.328v2.629
		c0,0.182,0.146,0.326,0.326,0.326h2.086v6.639C6.087,15.854,6.233,16,6.413,16h2.723c0.181,0,0.326-0.146,0.326-0.326V9.035H11.9
		c0.181,0,0.326-0.146,0.326-0.326l0.002-2.629c0-0.088-0.035-0.17-0.097-0.231s-0.145-0.097-0.23-0.097H9.462V4.213
		c0-0.738,0.177-1.114,1.141-1.114l1.396-0.001c0.181,0,0.326-0.146,0.326-0.326V0.33C12.325,0.148,12.18,0.002,11.999,0.002z"/>
</g>
</svg>
