<?xml version="1.0" encoding="utf-8"?>
<!-- Generator: Adobe Illustrator 16.0.0, SVG Export Plug-In . SVG Version: 6.00 Build 0)  -->
<!DOCTYPE svg PUBLIC "-//W3C//DTD SVG 1.1//EN" "http://www.w3.org/Graphics/SVG/1.1/DTD/svg11.dtd">
<svg version="1.1" id="Capa_1" xmlns="http://www.w3.org/2000/svg" xmlns:xlink="http://www.w3.org/1999/xlink" x="0px" y="0px"
	 width="64px" height="64px" viewBox="0 0 64 64" enable-background="new 0 0 64 64" xml:space="preserve">
<g>
	<path id="Facebook__x28_alt_x29_" fill="#4267B2" d="M64,10.667C64,5.063,58.939,0,53.333,0H10.667C5.061,0,0,5.063,0,10.667
		v42.666C0,58.938,5.061,64,10.667,64H32V39.822h-7.822V29.156H32V25c0-7.167,5.382-13.622,12-13.622h8.622v10.667H44
		c-0.943,0-2.045,1.146-2.045,2.861v4.25h10.667v10.666H41.955V64h11.378C58.939,64,64,58.938,64,53.333V10.667z"/>
	<path id="f" fill="#FFFFFF" d="M52.623,39.822V29.156H41.955v-4.25c0-1.717,1.102-2.861,2.045-2.861h8.623V11.378H44
		c-6.617,0-12,6.455-12,13.622v4.156h-7.822v10.666H32V64h9.955V39.822H52.623z"/>
</g>
</svg>
