<?xml version="1.0" encoding="utf-8"?>
<!-- Generator: Adobe Illustrator 16.0.0, SVG Export Plug-In . SVG Version: 6.00 Build 0)  -->
<!DOCTYPE svg PUBLIC "-//W3C//DTD SVG 1.1//EN" "http://www.w3.org/Graphics/SVG/1.1/DTD/svg11.dtd">
<svg version="1.1" id="Layer_1" xmlns="http://www.w3.org/2000/svg" xmlns:xlink="http://www.w3.org/1999/xlink" x="0px" y="0px"
	 width="16px" height="16px" viewBox="142 142 16 16" enable-background="new 142 142 16 16" xml:space="preserve">
<path d="M157.708,155.222c-0.008-0.1-0.052-0.195-0.125-0.267l-6.301-6.302c0.248-0.584,0.379-1.216,0.379-1.87
	c0-1.277-0.499-2.479-1.4-3.383c-0.903-0.902-2.104-1.4-3.382-1.4c-1.279,0-2.478,0.498-3.382,1.401
	c-1.866,1.865-1.867,4.899,0,6.764c0.905,0.904,2.104,1.402,3.382,1.402c0.654,0,1.285-0.132,1.87-0.38l2.07,2.072
	c0.086,0.085,0.199,0.13,0.322,0.126l1.128-0.04l-0.037,1.131c-0.003,0.119,0.04,0.235,0.126,0.32
	c0.083,0.085,0.2,0.132,0.319,0.127l1.132-0.039l-0.04,1.13c-0.004,0.119,0.042,0.235,0.125,0.32
	c0.087,0.085,0.187,0.131,0.322,0.127l1.13-0.039l-0.038,1.13c-0.006,0.126,0.047,0.246,0.136,0.332
	c0.083,0.075,0.187,0.115,0.295,0.115c0.016,0,0.031-0.001,0.048-0.002l1.731-0.192c0.234-0.025,0.404-0.234,0.385-0.469
	L157.708,155.222z M146.301,146.206c-0.532,0.532-1.392,0.532-1.923,0c-0.532-0.531-0.532-1.391,0-1.922
	c0.531-0.531,1.391-0.532,1.923,0C146.832,144.814,146.831,145.674,146.301,146.206z M156.23,155.365
	c-0.063,0.063-0.147,0.095-0.229,0.095c-0.083,0-0.168-0.031-0.23-0.095l-5.362-5.363c0.15-0.161,0.286-0.33,0.409-0.508
	l5.413,5.412C156.357,155.033,156.357,155.239,156.23,155.365z"/>
</svg>
