<?xml version="1.0" encoding="utf-8"?>
<!-- Generator: Adobe Illustrator 16.0.0, SVG Export Plug-In . SVG Version: 6.00 Build 0)  -->
<!DOCTYPE svg PUBLIC "-//W3C//DTD SVG 1.1//EN" "http://www.w3.org/Graphics/SVG/1.1/DTD/svg11.dtd">
<svg version="1.1" id="Capa_1" xmlns="http://www.w3.org/2000/svg" xmlns:xlink="http://www.w3.org/1999/xlink" x="0px" y="0px"
	 width="16px" height="16px" viewBox="0 0 16 16" enable-background="new 0 0 16 16" xml:space="preserve">
<g>
	<path d="M2.176,14.73c0,0-0.014,0.357,0.336,0.357c0.436,0,4.032-0.004,4.032-0.004l0.006-3.307c0,0-0.057-0.545,0.472-0.545h1.674
		c0.625,0,0.588,0.545,0.588,0.545L9.275,15.07c0,0,3.412,0,3.947,0c0.442,0,0.424-0.441,0.424-0.441V8.535l-5.563-4.95l-5.907,4.95
		V14.73z"/>
	<path d="M0,8.075c0,0,0.501,0.925,1.594,0l6.538-5.529l6.128,5.495c1.266,0.913,1.74,0,1.74,0L8.132,0.913L0,8.075z"/>
	<polygon points="14.109,2.532 12.534,2.532 12.54,4.444 14.109,5.774 	"/>
</g>
</svg>
