<?xml version="1.0" encoding="utf-8"?>
<!-- Generator: Adobe Illustrator 16.0.0, SVG Export Plug-In . SVG Version: 6.00 Build 0)  -->
<!DOCTYPE svg PUBLIC "-//W3C//DTD SVG 1.1//EN" "http://www.w3.org/Graphics/SVG/1.1/DTD/svg11.dtd">
<svg version="1.1" id="Capa_1" xmlns="http://www.w3.org/2000/svg" xmlns:xlink="http://www.w3.org/1999/xlink" x="0px" y="0px"
	 width="16px" height="16px" viewBox="12 12 16 16" enable-background="new 12 12 16 16" xml:space="preserve">
<g>
	<g>
		<g>
			<path d="M26.594,13.906H13.406c-0.775,0-1.406,0.631-1.406,1.406v9.375c0,0.775,0.631,1.406,1.406,1.406h13.188
				c0.774,0,1.406-0.631,1.406-1.406v-9.375C28,14.537,27.369,13.906,26.594,13.906z M27.063,24.687
				c0,0.259-0.211,0.469-0.469,0.469H13.406c-0.259,0-0.469-0.21-0.469-0.469v-9.374c0-0.259,0.21-0.469,0.469-0.469h13.188
				c0.258,0,0.469,0.21,0.469,0.469V24.687z"/>
		</g>
	</g>
	<g>
		<g>
			<path d="M16.688,19.531c-1.551,0-2.813,1.262-2.813,2.813v0.469c0,0.774,0.631,1.405,1.406,1.405h2.813
				c0.775,0,1.406-0.63,1.406-1.405v-0.469C19.5,20.793,18.238,19.531,16.688,19.531z M18.563,22.813
				c0,0.258-0.211,0.469-0.469,0.469h-2.813c-0.259,0-0.469-0.211-0.469-0.469v-0.469c0-1.035,0.841-1.875,1.875-1.875
				c1.033,0,1.875,0.84,1.875,1.875V22.813L18.563,22.813z"/>
		</g>
	</g>
	<g>
		<g>
			<path d="M16.688,15.781c-1.034,0-1.875,0.841-1.875,1.875s0.841,1.875,1.875,1.875c1.033,0,1.875-0.841,1.875-1.875
				S17.721,15.781,16.688,15.781z M16.688,18.594c-0.517,0-0.938-0.421-0.938-0.938c0-0.518,0.42-0.938,0.938-0.938
				c0.517,0,0.938,0.42,0.938,0.938C17.625,18.173,17.204,18.594,16.688,18.594z"/>
		</g>
	</g>
	<g>
		<g>
			<path d="M25.656,22.344h-4.688c-0.259,0-0.469,0.21-0.469,0.469s0.209,0.469,0.469,0.469h4.688c0.259,0,0.469-0.21,0.469-0.469
				S25.915,22.344,25.656,22.344z"/>
		</g>
	</g>
	<g>
		<g>
			<path d="M25.656,20.469h-4.688c-0.259,0-0.469,0.209-0.469,0.469c0,0.259,0.209,0.469,0.469,0.469h4.688
				c0.259,0,0.469-0.21,0.469-0.469C26.125,20.678,25.915,20.469,25.656,20.469z"/>
		</g>
	</g>
	<g>
		<g>
			<path d="M25.656,18.594h-4.688c-0.259,0-0.469,0.21-0.469,0.469s0.209,0.469,0.469,0.469h4.688c0.259,0,0.469-0.21,0.469-0.469
				S25.915,18.594,25.656,18.594z"/>
		</g>
	</g>
	<g>
		<g>
			<path d="M24.719,16.719h-2.813c-0.259,0-0.469,0.21-0.469,0.469s0.209,0.469,0.469,0.469h2.813c0.259,0,0.469-0.21,0.469-0.469
				S24.978,16.719,24.719,16.719z"/>
		</g>
	</g>
</g>
</svg>
