<?xml version="1.0" encoding="utf-8"?>
<!-- Generator: Adobe Illustrator 16.0.0, SVG Export Plug-In . SVG Version: 6.00 Build 0)  -->
<!DOCTYPE svg PUBLIC "-//W3C//DTD SVG 1.1//EN" "http://www.w3.org/Graphics/SVG/1.1/DTD/svg11.dtd">
<svg version="1.1" id="Capa_1" xmlns="http://www.w3.org/2000/svg" xmlns:xlink="http://www.w3.org/1999/xlink" x="0px" y="0px"
	 width="40px" height="40px" viewBox="0 0 40 40" enable-background="new 0 0 40 40" xml:space="preserve">
<path d="M15.308,12.484h-0.449c-0.438,0-0.798,0.358-0.798,0.8v8.167c0,0.438,0.359,0.801,0.798,0.801h0.449
	c0.442,0,0.799-0.363,0.799-0.801v-8.167C16.107,12.843,15.751,12.484,15.308,12.484z M24.596,12.484
	c-0.281,0-0.542,0.116-0.723,0.3c-0.186,0.185-0.301,0.441-0.301,0.722v4.717c0,0-4.084-5.327-4.147-5.397
	c-0.194-0.221-0.482-0.354-0.803-0.342c-0.555,0.022-0.982,0.508-0.982,1.061v7.684c0,0.565,0.456,1.022,1.021,1.022
	c0.283,0,0.539-0.115,0.721-0.299c0.188-0.188,0.302-0.442,0.302-0.724v-4.696c0,0,4.146,5.378,4.208,5.433
	c0.181,0.172,0.427,0.277,0.689,0.279c0.567,0.006,1.036-0.494,1.036-1.063v-7.679C25.618,12.941,25.163,12.484,24.596,12.484z
	 M12.065,20.206H8.998v-6.699c0-0.564-0.459-1.024-1.024-1.024c-0.284,0-0.538,0.116-0.721,0.3
	c-0.187,0.186-0.301,0.442-0.301,0.722v7.725c0,0.563,0.458,1.022,1.024,1.022h4.092c0.564,0,1.021-0.457,1.021-1.022
	c0-0.283-0.114-0.542-0.298-0.725C12.604,20.318,12.349,20.206,12.065,20.206z M32.268,14.53c0.563,0,1.022-0.458,1.022-1.023
	c0-0.564-0.458-1.024-1.022-1.024h-4.092c-0.564,0-1.024,0.458-1.024,1.024v7.724c0,0.563,0.46,1.021,1.024,1.021h4.092
	c0.563,0,1.022-0.457,1.022-1.021c0-0.284-0.116-0.542-0.306-0.726c-0.185-0.188-0.438-0.3-0.717-0.3h-3.07v-1.814h3.07
	c0.563,0,1.021-0.458,1.021-1.023c0-0.282-0.115-0.538-0.305-0.723c-0.186-0.185-0.438-0.298-0.717-0.298h-3.071V14.53H32.268z
	 M39.986,17.8c-0.022,0.318-0.067,0.727-0.158,1.211c-0.248,1.538-0.77,3.013-1.529,4.379c-0.358,0.652-2.109,3.107-2.645,3.754
	c-2.956,3.561-7.906,7.67-16.185,11.665c-0.773,0.373-1.654-0.247-1.561-1.101l0.418-3.754c0.067-0.599-0.37-1.141-0.966-1.203
	C7.564,31.729,0,25.061,0,16.985C0,8.2,8.955,1.08,19.999,1.08c10.728,0,19.491,6.726,19.976,15.167
	C39.979,16.494,40.021,17.272,39.986,17.8z"/>
</svg>
