<?xml version="1.0" encoding="utf-8"?>
<!-- Generator: Adobe Illustrator 16.0.0, SVG Export Plug-In . SVG Version: 6.00 Build 0)  -->
<!DOCTYPE svg PUBLIC "-//W3C//DTD SVG 1.1//EN" "http://www.w3.org/Graphics/SVG/1.1/DTD/svg11.dtd">
<svg version="1.1" id="Capa_1" xmlns="http://www.w3.org/2000/svg" xmlns:xlink="http://www.w3.org/1999/xlink" x="0px" y="0px"
	 width="40px" height="40px" viewBox="0 0 40 40" enable-background="new 0 0 40 40" xml:space="preserve">
<path d="M16.564,14.498h-0.328c-0.322,0-0.584,0.262-0.584,0.585v5.979c0,0.322,0.263,0.586,0.584,0.586h0.328
	c0.324,0,0.586-0.264,0.586-0.586v-5.979C17.15,14.76,16.889,14.498,16.564,14.498z"/>
<path d="M23.365,14.498c-0.207,0-0.395,0.084-0.529,0.219c-0.136,0.135-0.219,0.323-0.219,0.529V18.7c0,0-2.991-3.9-3.037-3.952
	c-0.143-0.161-0.354-0.259-0.587-0.25c-0.407,0.016-0.72,0.371-0.72,0.777V20.9c0,0.414,0.334,0.748,0.748,0.748
	c0.207,0,0.395-0.084,0.529-0.219c0.137-0.137,0.221-0.322,0.221-0.529v-3.436c0,0,3.036,3.936,3.081,3.979
	c0.133,0.125,0.311,0.203,0.506,0.205c0.416,0.004,0.756-0.363,0.756-0.779v-5.623C24.113,14.833,23.779,14.498,23.365,14.498z"/>
<path d="M14.191,20.15h-2.246v-4.904c0-0.413-0.336-0.749-0.75-0.749c-0.207,0-0.393,0.084-0.528,0.219
	c-0.136,0.136-0.22,0.323-0.22,0.529V20.9c0,0.414,0.336,0.748,0.75,0.748h2.996c0.414,0,0.748-0.334,0.748-0.748
	c0-0.207-0.084-0.396-0.219-0.53C14.586,20.234,14.398,20.15,14.191,20.15z"/>
<path d="M28.982,15.995c0.412,0,0.748-0.335,0.748-0.749c0-0.413-0.336-0.749-0.748-0.749h-2.996c-0.414,0-0.75,0.335-0.75,0.749
	V20.9c0,0.414,0.336,0.748,0.75,0.748h2.996c0.412,0,0.748-0.334,0.748-0.748c0-0.207-0.084-0.396-0.222-0.53
	c-0.135-0.136-0.321-0.22-0.526-0.22h-2.248v-1.328h2.248c0.412,0,0.748-0.336,0.748-0.749c0-0.207-0.084-0.394-0.222-0.529
	c-0.135-0.136-0.321-0.219-0.526-0.219h-2.248v-1.33H28.982z"/>
<path d="M40,6.667C40,3.164,36.837,0,33.333,0H6.667C3.163,0,0,3.164,0,6.667v26.666C0,36.836,3.163,40,6.667,40h26.666
	C36.837,40,40,36.836,40,33.333V6.667z M34.633,18.389c-0.015,0.233-0.049,0.532-0.116,0.887c-0.18,1.127-0.563,2.205-1.119,3.207
	c-0.262,0.476-1.545,2.273-1.938,2.748c-2.164,2.606-5.789,5.615-11.849,8.541c-0.566,0.272-1.211-0.182-1.143-0.806l0.307-2.749
	c0.049-0.438-0.27-0.834-0.707-0.881c-7.174-0.75-12.711-5.633-12.711-11.543c0-6.432,6.555-11.645,14.641-11.645
	c7.856,0,14.271,4.924,14.624,11.104C34.629,17.432,34.658,18.003,34.633,18.389z"/>
</svg>
