<?xml version="1.0" encoding="utf-8"?>
<!-- Generator: Adobe Illustrator 16.0.0, SVG Export Plug-In . SVG Version: 6.00 Build 0)  -->
<!DOCTYPE svg PUBLIC "-//W3C//DTD SVG 1.1//EN" "http://www.w3.org/Graphics/SVG/1.1/DTD/svg11.dtd">
<svg version="1.1" id="line" xmlns="http://www.w3.org/2000/svg" xmlns:xlink="http://www.w3.org/1999/xlink" x="0px" y="0px"
	 width="40px" height="40px" viewBox="0 0 40 40" enable-background="new 0 0 40 40" xml:space="preserve">
<g>
	<path fill="#00B900" d="M40,6.667C40,3.164,36.837,0,33.333,0H6.667C3.163,0,0,3.164,0,6.667v26.666C0,36.836,3.163,40,6.667,40
		h26.666C36.837,40,40,36.836,40,33.333V6.667z M34.633,18.389c-0.015,0.233-0.049,0.532-0.115,0.887
		c-0.181,1.127-0.563,2.205-1.119,3.207c-0.263,0.477-1.545,2.273-1.938,2.748c-2.164,2.606-5.789,5.615-11.849,8.541
		c-0.566,0.272-1.211-0.182-1.143-0.806l0.307-2.749c0.049-0.438-0.27-0.834-0.707-0.881c-7.174-0.75-12.711-5.633-12.711-11.543
		c0-6.432,6.555-11.645,14.641-11.645c7.855,0,14.271,4.924,14.624,11.104C34.629,17.432,34.658,18.003,34.633,18.389z"/>
	<path fill="#FFFFFF" d="M19.611,33.771c6.061-2.926,9.686-5.935,11.85-8.541c0.394-0.475,1.676-2.271,1.938-2.748
		c0.556-1.002,0.938-2.08,1.119-3.207c0.066-0.355,0.101-0.654,0.115-0.887c0.025-0.386-0.004-0.957-0.011-1.137
		c-0.353-6.18-6.769-11.104-14.624-11.104c-8.086,0-14.642,5.213-14.642,11.645c0,5.91,5.537,10.793,12.711,11.543
		c0.438,0.047,0.757,0.443,0.707,0.881l-0.307,2.749C18.4,33.59,19.046,34.044,19.611,33.771z"/>
	<g>
		<path fill="#00B900" d="M16.564,14.498h-0.328c-0.322,0-0.584,0.262-0.584,0.585v5.979c0,0.321,0.263,0.586,0.584,0.586h0.328
			c0.324,0,0.586-0.265,0.586-0.586v-5.979C17.15,14.76,16.889,14.498,16.564,14.498z"/>
		<path fill="#00B900" d="M23.365,14.498c-0.207,0-0.396,0.084-0.529,0.219c-0.136,0.135-0.219,0.323-0.219,0.529V18.7
			c0,0-2.991-3.9-3.037-3.952c-0.143-0.161-0.354-0.259-0.587-0.25c-0.407,0.016-0.72,0.371-0.72,0.777V20.9
			c0,0.414,0.334,0.748,0.748,0.748c0.207,0,0.395-0.084,0.529-0.219c0.137-0.138,0.221-0.322,0.221-0.529v-3.437
			c0,0,3.036,3.937,3.081,3.979c0.133,0.125,0.312,0.203,0.506,0.205c0.416,0.004,0.757-0.363,0.757-0.779v-5.623
			C24.113,14.833,23.779,14.498,23.365,14.498z"/>
		<path fill="#00B900" d="M14.191,20.15h-2.246v-4.904c0-0.413-0.336-0.749-0.75-0.749c-0.207,0-0.393,0.084-0.528,0.219
			c-0.136,0.136-0.22,0.323-0.22,0.529V20.9c0,0.414,0.336,0.748,0.75,0.748h2.996c0.414,0,0.748-0.334,0.748-0.748
			c0-0.207-0.084-0.396-0.219-0.53C14.586,20.234,14.398,20.15,14.191,20.15z"/>
		<path fill="#00B900" d="M28.982,15.995c0.412,0,0.748-0.335,0.748-0.749c0-0.413-0.336-0.749-0.748-0.749h-2.996
			c-0.414,0-0.75,0.335-0.75,0.749V20.9c0,0.414,0.336,0.748,0.75,0.748h2.996c0.412,0,0.748-0.334,0.748-0.748
			c0-0.207-0.084-0.396-0.223-0.53c-0.135-0.136-0.32-0.22-0.525-0.22h-2.248v-1.328h2.248c0.412,0,0.748-0.336,0.748-0.749
			c0-0.207-0.084-0.394-0.223-0.529c-0.135-0.136-0.32-0.219-0.525-0.219h-2.248v-1.33H28.982z"/>
	</g>
</g>
</svg>
