<?xml version="1.0" encoding="utf-8"?>
<!-- Generator: Adobe Illustrator 16.0.0, SVG Export Plug-In . SVG Version: 6.00 Build 0)  -->
<!DOCTYPE svg PUBLIC "-//W3C//DTD SVG 1.1//EN" "http://www.w3.org/Graphics/SVG/1.1/DTD/svg11.dtd">
<svg version="1.1" id="圖層_1" xmlns="http://www.w3.org/2000/svg" xmlns:xlink="http://www.w3.org/1999/xlink" x="0px" y="0px"
	 width="16px" height="16px" viewBox="0 0 16 16" enable-background="new 0 0 16 16" xml:space="preserve">
<g>
	<path d="M15.805,14.864l-3.847-3.847c0.953-1.164,1.526-2.652,1.526-4.275c0-3.723-3.021-6.743-6.742-6.743
		C3.018,0,0,3.021,0,6.743s3.018,6.743,6.743,6.743c1.623,0,3.108-0.571,4.271-1.524l3.848,3.843c0.262,0.262,0.683,0.262,0.943,0
		C16.064,15.546,16.064,15.122,15.805,14.864z M6.743,12.145c-2.981,0-5.404-2.424-5.404-5.401s2.423-5.404,5.404-5.404
		c2.978,0,5.403,2.427,5.403,5.404S9.721,12.145,6.743,12.145z"/>
</g>
</svg>
