<?xml version="1.0" encoding="utf-8"?>
<!-- Generator: Adobe Illustrator 16.0.0, SVG Export Plug-In . SVG Version: 6.00 Build 0)  -->
<!DOCTYPE svg PUBLIC "-//W3C//DTD SVG 1.1//EN" "http://www.w3.org/Graphics/SVG/1.1/DTD/svg11.dtd">
<svg version="1.1" id="Capa_1" xmlns="http://www.w3.org/2000/svg" xmlns:xlink="http://www.w3.org/1999/xlink" x="0px" y="0px"
	 width="16px" height="16px" viewBox="0 0 16 16" enable-background="new 0 0 16 16" xml:space="preserve">
<g>
	<path d="M8,7.825c1.779,0,3.223-1.752,3.223-3.913S10.748,0,8,0C5.253,0,4.779,1.751,4.779,3.913S6.221,7.825,8,7.825z"/>
	<path d="M1.916,13.799C1.915,13.666,1.915,13.762,1.916,13.799L1.916,13.799z"/>
	<path d="M14.084,13.902C14.086,13.865,14.085,13.65,14.084,13.902L14.084,13.902z"/>
	<path d="M14.077,13.641c-0.06-3.764-0.552-4.836-4.313-5.516c0,0-0.529,0.674-1.764,0.674S6.236,8.125,6.236,8.125
		C2.516,8.797,1.994,9.854,1.924,13.52c-0.005,0.299-0.008,0.314-0.009,0.279c0,0.064,0,0.186,0,0.396c0,0,0.896,1.805,6.084,1.805
		s6.084-1.805,6.084-1.805c0-0.135,0-0.23,0-0.293C14.083,13.924,14.081,13.881,14.077,13.641z"/>
</g>
</svg>
