<?xml version="1.0" encoding="utf-8"?>
<!-- Generator: Adobe Illustrator 16.0.0, SVG Export Plug-In . SVG Version: 6.00 Build 0)  -->
<!DOCTYPE svg PUBLIC "-//W3C//DTD SVG 1.1//EN" "http://www.w3.org/Graphics/SVG/1.1/DTD/svg11.dtd">
<svg version="1.1" id="圓角矩形_2_拷貝_2_1_" xmlns="http://www.w3.org/2000/svg" xmlns:xlink="http://www.w3.org/1999/xlink"
	 x="0px" y="0px" width="16px" height="16px" viewBox="3 3 16 16" enable-background="new 3 3 16 16" xml:space="preserve">
<g id="圓角矩形_2_拷貝_2">
	<g>
		<path d="M8.818,3H4.455C3.652,3,3,3.652,3,4.455v4.364c0,0.803,0.652,1.455,1.455,1.455h4.364c0.803,0,1.455-0.652,1.455-1.455
			V4.455C10.273,3.652,9.621,3,8.818,3z M17.546,3h-4.364c-0.803,0-1.454,0.652-1.454,1.455v4.364c0,0.803,0.651,1.455,1.454,1.455
			h4.364c0.802,0,1.454-0.652,1.454-1.455V4.455C19,3.652,18.348,3,17.546,3z M8.818,11.728H4.455C3.652,11.728,3,12.379,3,13.182
			v4.364C3,18.348,3.652,19,4.455,19h4.364c0.803,0,1.455-0.652,1.455-1.454v-4.364C10.273,12.379,9.621,11.728,8.818,11.728z
			 M17.546,11.728h-4.364c-0.803,0-1.454,0.651-1.454,1.454v4.364c0,0.802,0.651,1.454,1.454,1.454h4.364
			C18.348,19,19,18.348,19,17.546v-4.364C19,12.379,18.348,11.728,17.546,11.728z"/>
	</g>
</g>
</svg>
