<?xml version="1.0" encoding="utf-8"?>
<!-- Generator: Adobe Illustrator 16.0.0, SVG Export Plug-In . SVG Version: 6.00 Build 0)  -->
<!DOCTYPE svg PUBLIC "-//W3C//DTD SVG 1.1//EN" "http://www.w3.org/Graphics/SVG/1.1/DTD/svg11.dtd">
<svg version="1.1" id="Capa_1" xmlns="http://www.w3.org/2000/svg" xmlns:xlink="http://www.w3.org/1999/xlink" x="0px" y="0px"
	 width="16px" height="16px" viewBox="0 0 16 16" enable-background="new 0 0 16 16" xml:space="preserve">
<g>
	<path d="M15.467,1.599h-4.578l-0.912-0.91C9.877,0.588,9.742,0.534,9.6,0.534H0.534C0.24,0.534,0,0.773,0,1.066v11.733
		c0,0.297,0.239,0.535,0.533,0.535h1.6v1.6c0,0.295,0.239,0.533,0.533,0.533h12.8c0.295,0,0.533-0.238,0.533-0.533V2.132
		C16,1.838,15.762,1.599,15.467,1.599z M10.133,2.353l1.912,1.912h-1.912V2.353z M1.066,12.268V1.599h8v3.2
		c0,0.296,0.238,0.533,0.533,0.533h3.199v6.935H1.066L1.066,12.268z M14.934,14.4H3.2v-1.066h10.134
		c0.293,0,0.533-0.238,0.533-0.535v-8c0-0.142-0.057-0.276-0.156-0.377l-1.758-1.756h2.98V14.4L14.934,14.4z"/>
	<rect x="2.667" y="6.933" width="8.535" height="1.066"/>
	<rect x="2.667" y="9.602" width="8.535" height="1.064"/>
	<rect x="2.667" y="3.2" width="2.133" height="1.065"/>
</g>
</svg>
