<?xml version="1.0" encoding="utf-8"?>
<!-- Generator: Adobe Illustrator 16.0.0, SVG Export Plug-In . SVG Version: 6.00 Build 0)  -->
<!DOCTYPE svg PUBLIC "-//W3C//DTD SVG 1.1//EN" "http://www.w3.org/Graphics/SVG/1.1/DTD/svg11.dtd">
<svg version="1.1" id="Capa_1" xmlns="http://www.w3.org/2000/svg" xmlns:xlink="http://www.w3.org/1999/xlink" x="0px" y="0px"
	 width="16px" height="16px" viewBox="0 0 16 16" enable-background="new 0 0 16 16" xml:space="preserve">
<g>
	<g>
		<path d="M1.015,8.357h9.528l-2.458,2.502c-0.188,0.188-0.188,0.513,0,0.699c0.094,0.094,0.215,0.15,0.338,0.15
			c0.122,0,0.245-0.041,0.338-0.134l3.061-3.058c0.09-0.09,0.139-0.209,0.139-0.336s-0.049-0.248-0.139-0.338l-0.145-0.145
			c-0.033-0.049-0.074-0.09-0.123-0.122L8.764,4.785c-0.188-0.188-0.491-0.188-0.677,0s-0.187,0.443,0,0.63l2.033,1.987H1.015
			c-0.263,0-0.478,0.214-0.478,0.478C0.538,8.145,0.75,8.357,1.015,8.357z"/>
		<path d="M15.463,14.156V2.277c0-1.145-0.934-2.277-2.09-2.277H7.165C6.032,0,4.956,1.093,4.956,2.277v2.828
			c0,0.265,0.214,0.479,0.478,0.479S5.912,5.37,5.912,5.105V2.277c0-0.655,0.65-1.322,1.254-1.322h6.209
			c0.631,0,1.133,0.702,1.133,1.322v11.879c0,0.637-0.525,0.889-1.133,0.889H7.166c-0.564,0-1.254-0.212-1.254-0.889v-2.842
			c0-0.265-0.215-0.478-0.479-0.478s-0.478,0.213-0.478,0.478v2.842C4.956,15.277,5.955,16,7.165,16h6.208
			C14.611,16,15.463,15.241,15.463,14.156z"/>
	</g>
</g>
</svg>
