<?xml version="1.0" encoding="utf-8"?>
<!-- Generator: Adobe Illustrator 16.0.0, SVG Export Plug-In . SVG Version: 6.00 Build 0)  -->
<!DOCTYPE svg PUBLIC "-//W3C//DTD SVG 1.1//EN" "http://www.w3.org/Graphics/SVG/1.1/DTD/svg11.dtd">
<svg version="1.1" id="Capa_1" xmlns="http://www.w3.org/2000/svg" xmlns:xlink="http://www.w3.org/1999/xlink" x="0px" y="0px"
	 width="16px" height="16px" viewBox="0 0 16 16" enable-background="new 0 0 16 16" xml:space="preserve">
<g>
	<path d="M12.978,4.125h-1.694V1.081c0-0.595-0.486-1.081-1.08-1.081H3.069c-0.594,0-1.08,0.486-1.08,1.081V14.92
		c0,0.594,0.486,1.08,1.08,1.08h7.134c0.594,0,1.08-0.486,1.08-1.08v-3.475h1.694c0.57,0,1.033-0.461,1.033-1.027V5.15
		C14.011,4.586,13.548,4.125,12.978,4.125z M5.494,0.779h2.282c0.072,0,0.131,0.06,0.131,0.132c0,0.071-0.059,0.13-0.131,0.13H5.494
		c-0.072,0-0.13-0.059-0.13-0.13C5.364,0.838,5.422,0.779,5.494,0.779z M6.636,15.461c-0.298,0-0.541-0.242-0.541-0.541
		s0.242-0.541,0.541-0.541s0.541,0.242,0.541,0.541S6.935,15.461,6.636,15.461z M10.531,14.001H2.739V1.714h7.792v2.411H6.077
		c-0.569,0-1.033,0.461-1.033,1.027v5.267c0,0.565,0.464,1.026,1.033,1.026h0.624v1.765l1.765-1.765h2.065V14.001z M13.554,10.419
		c0,0.313-0.258,0.569-0.576,0.569H8.276l-1.118,1.117v-1.117H6.077c-0.316,0-0.575-0.256-0.575-0.569V5.152
		c0-0.314,0.259-0.57,0.575-0.57h6.9c0.316,0,0.576,0.256,0.576,0.57V10.419z M12.41,6.215c0,0.156-0.117,0.283-0.265,0.283H6.923
		c-0.146,0-0.265-0.126-0.265-0.283c0-0.154,0.118-0.283,0.265-0.283h5.223C12.292,5.932,12.41,6.061,12.41,6.215z M12.41,7.747
		c0,0.157-0.117,0.282-0.265,0.282H6.923c-0.146,0-0.265-0.125-0.265-0.282c0-0.155,0.118-0.282,0.265-0.282h5.223
		C12.292,7.465,12.41,7.592,12.41,7.747z M12.41,9.279c0,0.156-0.117,0.283-0.265,0.283H6.923c-0.146,0-0.265-0.127-0.265-0.283
		c0-0.155,0.118-0.281,0.265-0.281h5.223C12.292,8.998,12.41,9.124,12.41,9.279z"/>
</g>
</svg>
