<?xml version="1.0" encoding="utf-8"?>
<!-- Generator: Adobe Illustrator 16.0.0, SVG Export Plug-In . SVG Version: 6.00 Build 0)  -->
<!DOCTYPE svg PUBLIC "-//W3C//DTD SVG 1.1//EN" "http://www.w3.org/Graphics/SVG/1.1/DTD/svg11.dtd">
<svg version="1.1" id="Capa_1" xmlns="http://www.w3.org/2000/svg" xmlns:xlink="http://www.w3.org/1999/xlink" x="0px" y="0px"
	 width="16px" height="16px" viewBox="0 0 16 16" enable-background="new 0 0 16 16" xml:space="preserve">
<g>
	<g>
		<path d="M15.429,10.858H0.571c-0.154,0-0.289,0.058-0.402,0.17c-0.112,0.113-0.168,0.246-0.168,0.402v2.285
			c0,0.153,0.057,0.288,0.168,0.399c0.113,0.113,0.248,0.17,0.402,0.17h14.857c0.154,0,0.287-0.057,0.4-0.17
			c0.113-0.111,0.17-0.246,0.17-0.399v-2.285c0-0.156-0.057-0.289-0.17-0.402C15.716,10.916,15.583,10.858,15.429,10.858z
			 M14.857,13.144H9.144V12h5.714V13.144L14.857,13.144z"/>
		<path d="M15.429,6.287H0.571c-0.154,0-0.289,0.058-0.402,0.17C0.057,6.569,0.001,6.703,0.001,6.858v2.285
			c0,0.153,0.057,0.289,0.168,0.401c0.113,0.113,0.248,0.171,0.402,0.171h14.857c0.154,0,0.287-0.058,0.4-0.171
			c0.113-0.112,0.17-0.248,0.17-0.401V6.858c0-0.155-0.057-0.289-0.17-0.401C15.717,6.344,15.583,6.287,15.429,6.287z M14.856,8.574
			H5.714V7.43h9.143V8.574z"/>
		<path d="M15.829,1.886c-0.113-0.113-0.246-0.171-0.4-0.171H0.571c-0.154,0-0.289,0.058-0.402,0.171
			C0.057,1.998,0.001,2.133,0.001,2.287v2.287c0,0.154,0.057,0.288,0.168,0.401c0.113,0.112,0.248,0.169,0.402,0.169h14.857
			c0.154,0,0.287-0.057,0.4-0.169c0.113-0.113,0.17-0.247,0.17-0.401V2.287C15.999,2.133,15.943,1.998,15.829,1.886z M14.856,4.002
			h-3.428V2.858h3.428V4.002z"/>
	</g>
</g>
</svg>
