<?xml version="1.0" encoding="utf-8"?>
<!-- Generator: Adobe Illustrator 16.0.0, SVG Export Plug-In . SVG Version: 6.00 Build 0)  -->
<!DOCTYPE svg PUBLIC "-//W3C//DTD SVG 1.1//EN" "http://www.w3.org/Graphics/SVG/1.1/DTD/svg11.dtd">
<svg version="1.1" id="Capa_1" xmlns="http://www.w3.org/2000/svg" xmlns:xlink="http://www.w3.org/1999/xlink" x="0px" y="0px"
	 width="16px" height="16px" viewBox="0 0 16 16" enable-background="new 0 0 16 16" xml:space="preserve">
<g>
	<g>
		<path d="M13.509,0H4.671C4.042,0,3.53,0.513,3.53,1.142V1.87H2.491c-0.629,0-1.141,0.512-1.141,1.141v11.849
			C1.351,15.488,1.862,16,2.491,16h8.838c0.629,0,1.143-0.512,1.143-1.141V14.13h1.037c0.629,0,1.141-0.513,1.141-1.142V1.142
			C14.649,0.513,14.138,0,13.509,0z M11.558,14.86c0,0.126-0.103,0.228-0.229,0.228H2.491c-0.125,0-0.229-0.103-0.229-0.228V3.013
			c0-0.127,0.104-0.229,0.229-0.229H3.53V12.99c0,0.629,0.512,1.142,1.141,1.142h6.887V14.86L11.558,14.86z M13.737,12.99
			c0,0.126-0.104,0.229-0.229,0.229H4.67c-0.126,0-0.228-0.104-0.228-0.229V1.142c0-0.125,0.103-0.229,0.228-0.229h8.839
			c0.125,0,0.229,0.104,0.229,0.229V12.99L13.737,12.99z"/>
		<path d="M12.438,2.835H5.744c-0.252,0-0.456,0.205-0.456,0.457s0.204,0.457,0.456,0.457h6.692c0.254,0,0.457-0.204,0.457-0.457
			C12.894,3.04,12.69,2.835,12.438,2.835z"/>
		<path d="M12.438,5.009H5.744c-0.252,0-0.456,0.203-0.456,0.455s0.204,0.457,0.456,0.457h6.692c0.254,0,0.457-0.203,0.457-0.457
			C12.894,5.212,12.69,5.009,12.438,5.009z"/>
		<path d="M12.438,7.181H5.744c-0.252,0-0.456,0.205-0.456,0.457s0.204,0.457,0.456,0.457h6.692c0.254,0,0.457-0.205,0.457-0.457
			S12.69,7.181,12.438,7.181z"/>
		<path d="M12.438,9.353H5.744c-0.252,0-0.456,0.205-0.456,0.457s0.204,0.457,0.456,0.457h6.692c0.254,0,0.457-0.205,0.457-0.457
			S12.69,9.353,12.438,9.353z"/>
	</g>
</g>
</svg>
