<?xml version="1.0" encoding="utf-8"?>
<!-- Generator: Adobe Illustrator 16.0.0, SVG Export Plug-In . SVG Version: 6.00 Build 0)  -->
<!DOCTYPE svg PUBLIC "-//W3C//DTD SVG 1.1//EN" "http://www.w3.org/Graphics/SVG/1.1/DTD/svg11.dtd">
<svg version="1.1" id="Capa_1" xmlns="http://www.w3.org/2000/svg" xmlns:xlink="http://www.w3.org/1999/xlink" x="0px" y="0px"
	 width="16px" height="16px" viewBox="0 0 16 16" enable-background="new 0 0 16 16" xml:space="preserve">
<g>
	<g id="Layer_2_16_">
		<g>
			<path d="M9.616,14.573c-0.132,0.033-0.267,0.062-0.399,0.087c-0.35,0.064-0.58,0.4-0.516,0.75
				c0.031,0.172,0.129,0.314,0.262,0.408c0.138,0.096,0.312,0.141,0.487,0.105c0.159-0.028,0.319-0.063,0.478-0.104
				c0.345-0.086,0.555-0.436,0.469-0.779S9.961,14.487,9.616,14.573z"/>
			<path d="M14.373,5.952c0.045,0.136,0.131,0.247,0.239,0.323c0.161,0.113,0.372,0.15,0.573,0.085
				c0.337-0.112,0.52-0.476,0.408-0.813c-0.051-0.152-0.107-0.308-0.168-0.457C15.295,4.76,14.92,4.599,14.59,4.73
				s-0.49,0.506-0.357,0.836C14.282,5.693,14.33,5.823,14.373,5.952z"/>
			<path d="M11.707,13.655c-0.113,0.074-0.23,0.146-0.35,0.216c-0.309,0.178-0.413,0.57-0.234,0.879
				c0.047,0.082,0.111,0.15,0.186,0.203c0.199,0.141,0.469,0.16,0.691,0.031c0.142-0.081,0.28-0.167,0.416-0.256
				c0.295-0.196,0.377-0.596,0.182-0.893C12.401,13.541,12.002,13.459,11.707,13.655z"/>
			<path d="M15.994,7.75c-0.015-0.355-0.313-0.632-0.669-0.619c-0.354,0.015-0.631,0.313-0.616,0.668
				c0.006,0.137,0.006,0.273,0.004,0.41c-0.006,0.223,0.104,0.42,0.272,0.539c0.101,0.071,0.224,0.114,0.354,0.117
				c0.354,0.008,0.649-0.273,0.658-0.629C16.002,8.074,16,7.91,15.994,7.75z"/>
			<path d="M14.268,11.963c-0.285-0.213-0.688-0.155-0.9,0.129c-0.082,0.108-0.168,0.217-0.256,0.32
				c-0.23,0.271-0.197,0.676,0.072,0.905c0.016,0.015,0.031,0.024,0.048,0.037c0.269,0.188,0.642,0.146,0.858-0.108
				c0.105-0.125,0.207-0.252,0.306-0.383C14.609,12.58,14.553,12.176,14.268,11.963z"/>
			<path d="M15.213,9.639c-0.338-0.106-0.699,0.082-0.806,0.421c-0.041,0.13-0.086,0.26-0.135,0.388
				c-0.106,0.28-0.004,0.59,0.229,0.754c0.043,0.03,0.09,0.057,0.143,0.075c0.332,0.127,0.703-0.039,0.83-0.371
				c0.058-0.151,0.111-0.307,0.16-0.461C15.74,10.105,15.553,9.744,15.213,9.639z"/>
			<path d="M6.811,14.666c-0.575-0.104-1.127-0.279-1.648-0.523c-0.008-0.004-0.013-0.008-0.02-0.01
				c-0.123-0.06-0.246-0.121-0.365-0.187c-0.001,0-0.001-0.001-0.002-0.001c-0.219-0.12-0.434-0.254-0.641-0.4
				c-3.025-2.131-3.754-6.326-1.621-9.352c0.464-0.658,1.023-1.207,1.648-1.641C4.17,2.547,4.178,2.541,4.186,2.536
				c2.203-1.519,5.195-1.62,7.535-0.061l-0.504,0.726c-0.139,0.202-0.053,0.35,0.191,0.327l2.184-0.194
				c0.244-0.022,0.392-0.234,0.324-0.471L13.33,0.752c-0.064-0.238-0.232-0.266-0.373-0.063l-0.504,0.728
				c-1.717-1.152-3.775-1.592-5.82-1.238c-0.205,0.037-0.408,0.08-0.608,0.131c-0.002,0-0.003,0-0.004,0.001
				C6.012,0.312,6.004,0.313,5.998,0.315C4.234,0.769,2.696,1.797,1.6,3.264C1.59,3.274,1.58,3.284,1.572,3.297
				C1.537,3.346,1.5,3.396,1.465,3.446c-0.059,0.083-0.114,0.167-0.17,0.251c-0.006,0.01-0.013,0.021-0.019,0.031
				C0.371,5.131-0.065,6.754,0.008,8.405c0,0.006,0,0.011,0,0.017c0.009,0.162,0.021,0.326,0.039,0.485
				c0,0.011,0.002,0.021,0.004,0.031c0.019,0.162,0.041,0.323,0.068,0.485c0.287,1.656,1.068,3.146,2.238,4.306
				c0.003,0.003,0.006,0.006,0.009,0.009c0.001,0.001,0.003,0.001,0.003,0.002c0.314,0.311,0.656,0.598,1.024,0.855
				c0.964,0.681,2.036,1.129,3.188,1.336c0.351,0.063,0.685-0.17,0.746-0.521C7.391,15.062,7.16,14.729,6.811,14.666z"/>
			<path d="M7.606,2.862c-0.288,0-0.521,0.233-0.521,0.521v5.185l4.742,2.451c0.075,0.04,0.157,0.06,0.237,0.06
				c0.188,0,0.37-0.104,0.463-0.281c0.132-0.256,0.032-0.569-0.224-0.701L8.127,7.935V3.383C8.125,3.096,7.894,2.862,7.606,2.862z"
				/>
		</g>
	</g>
</g>
</svg>
