<?xml version="1.0" encoding="utf-8"?>
<!-- Generator: Adobe Illustrator 16.0.0, SVG Export Plug-In . SVG Version: 6.00 Build 0)  -->
<!DOCTYPE svg PUBLIC "-//W3C//DTD SVG 1.1//EN" "http://www.w3.org/Graphics/SVG/1.1/DTD/svg11.dtd">
<svg version="1.1" id="Capa_1" xmlns="http://www.w3.org/2000/svg" xmlns:xlink="http://www.w3.org/1999/xlink" x="0px" y="0px"
	 width="16px" height="16px" viewBox="0 0 16 16" enable-background="new 0 0 16 16" xml:space="preserve">
<path d="M16,8c0-4.411-3.589-8-8-8S0,3.589,0,8c0,2.33,1.002,4.43,2.598,5.893L2.589,13.9l0.261,0.219
	c0.017,0.014,0.034,0.025,0.051,0.039c0.139,0.115,0.281,0.223,0.427,0.328c0.047,0.033,0.094,0.068,0.144,0.102
	c0.154,0.107,0.313,0.209,0.477,0.305c0.037,0.021,0.072,0.041,0.107,0.063c0.18,0.102,0.36,0.197,0.547,0.285
	c0.015,0.007,0.028,0.013,0.043,0.019c0.607,0.283,1.256,0.49,1.935,0.612c0.019,0.003,0.034,0.007,0.053,0.01
	c0.21,0.036,0.423,0.064,0.64,0.085c0.025,0.002,0.051,0.005,0.078,0.007C7.563,15.988,7.779,16,8,16
	c0.218,0,0.434-0.012,0.646-0.027c0.026-0.004,0.055-0.005,0.08-0.008c0.215-0.02,0.426-0.047,0.635-0.083
	c0.018-0.003,0.035-0.007,0.055-0.01c0.668-0.12,1.307-0.323,1.906-0.599c0.023-0.01,0.045-0.021,0.066-0.029
	c0.18-0.084,0.354-0.176,0.526-0.271c0.043-0.024,0.086-0.05,0.128-0.074c0.157-0.092,0.311-0.188,0.46-0.291
	c0.056-0.037,0.106-0.075,0.16-0.113c0.127-0.092,0.253-0.188,0.375-0.286c0.026-0.021,0.056-0.04,0.082-0.063l0.267-0.223
	l-0.008-0.007C14.988,12.451,16,10.342,16,8z M0.582,8C0.582,3.91,3.91,0.582,8,0.582S15.418,3.91,15.418,8
	c0,2.204-0.967,4.186-2.498,5.546c-0.086-0.06-0.172-0.112-0.26-0.155l-2.463-1.231c-0.223-0.111-0.359-0.333-0.359-0.58v-0.86
	c0.059-0.07,0.117-0.148,0.18-0.236c0.318-0.451,0.574-0.951,0.762-1.49c0.369-0.176,0.605-0.542,0.605-0.957V7.004
	c0-0.252-0.092-0.497-0.258-0.689V4.958c0.016-0.151,0.068-1.003-0.547-1.706C10.043,2.641,9.176,2.33,8,2.33
	S5.957,2.641,5.42,3.252C4.805,3.955,4.857,4.807,4.872,4.958v1.358C4.707,6.508,4.613,6.753,4.613,7.005v1.031
	c0,0.319,0.145,0.62,0.391,0.821c0.236,0.922,0.721,1.621,0.9,1.857v0.844c0,0.235-0.129,0.455-0.338,0.567l-2.301,1.256
	c-0.072,0.039-0.146,0.086-0.219,0.138C1.535,12.158,0.582,10.188,0.582,8z M12.352,14.002c-0.102,0.074-0.205,0.146-0.311,0.214
	c-0.048,0.031-0.096,0.063-0.145,0.093c-0.139,0.086-0.277,0.166-0.42,0.242c-0.031,0.018-0.063,0.032-0.097,0.049
	c-0.327,0.168-0.666,0.313-1.014,0.43c-0.013,0.005-0.025,0.009-0.037,0.013c-0.183,0.062-0.367,0.114-0.556,0.16v0.001
	c-0.188,0.046-0.381,0.085-0.571,0.115c-0.007,0.002-0.011,0.004-0.017,0.005c-0.181,0.028-0.363,0.051-0.545,0.065
	c-0.033,0.004-0.064,0.006-0.098,0.008c-0.182,0.014-0.361,0.021-0.545,0.021c-0.186,0-0.368-0.009-0.551-0.021
	c-0.032-0.004-0.063-0.006-0.096-0.008c-0.185-0.017-0.367-0.039-0.549-0.068c-0.009-0.002-0.018-0.002-0.025-0.004
	c-0.385-0.063-0.762-0.158-1.131-0.282c-0.012-0.005-0.023-0.009-0.035-0.013C5.43,14.96,5.248,14.891,5.07,14.814
	c-0.002,0-0.004,0-0.004-0.002c-0.168-0.071-0.334-0.151-0.496-0.236c-0.021-0.012-0.043-0.021-0.063-0.032
	c-0.149-0.08-0.294-0.166-0.438-0.256c-0.041-0.026-0.084-0.054-0.125-0.08c-0.133-0.087-0.262-0.177-0.389-0.271
	c-0.014-0.011-0.027-0.021-0.039-0.031c0.008-0.006,0.019-0.01,0.027-0.016l2.3-1.255c0.396-0.217,0.642-0.63,0.642-1.079v-1.05
	l-0.066-0.08c-0.006-0.008-0.635-0.772-0.873-1.809L5.52,8.503L5.419,8.439c-0.14-0.09-0.224-0.242-0.224-0.405V7.003
	c0-0.135,0.058-0.261,0.162-0.356l0.096-0.086V4.939L5.452,4.9c-0.001-0.008-0.087-0.707,0.405-1.27C6.279,3.152,7,2.909,8,2.909
	c0.996,0,1.715,0.241,2.137,0.717c0.492,0.556,0.412,1.269,0.411,1.274l-0.003,1.658l0.098,0.086
	c0.104,0.095,0.162,0.222,0.162,0.356v1.031c0,0.208-0.143,0.396-0.345,0.458l-0.146,0.045L10.268,8.68
	c-0.17,0.532-0.416,1.024-0.726,1.463c-0.076,0.108-0.149,0.203-0.215,0.276l-0.072,0.082v1.076c0,0.469,0.263,0.891,0.681,1.1
	l2.463,1.232c0.018,0.008,0.031,0.016,0.047,0.022C12.415,13.957,12.383,13.979,12.352,14.002z"/>
</svg>
